<svg width="33" height="33" viewBox="0 0 33 33" fill="none" xmlns="http://www.w3.org/2000/svg">
<rect width="33" height="33" rx="16.5" fill="white" fill-opacity="0.2"/>
<path fill-rule="evenodd" clip-rule="evenodd" d="M15.2674 12.5491C14.0821 11.3638 12.1603 11.3638 10.975 12.5491C9.78972 13.7344 9.78972 15.6562 10.975 16.8415L16.5418 22.4082L22.0605 16.8895C23.2458 15.7042 23.2458 13.7825 22.0605 12.5972C20.8752 11.4119 18.9534 11.4119 17.7681 12.5972L17.0383 13.327C16.7641 13.6012 16.3195 13.6012 16.0453 13.327L15.2674 12.5491ZM10.279 11.8531C11.8487 10.2833 14.3937 10.2833 15.9634 11.8531L16.5418 12.4314L17.0721 11.9011C18.6418 10.3314 21.1868 10.3314 22.7565 11.9011C24.3263 13.4708 24.3263 16.0159 22.7565 17.5856L16.8985 23.4437C16.878 23.4642 16.8561 23.4825 16.8332 23.4986C16.6385 23.64 16.3644 23.623 16.1888 23.4474L10.279 17.5375C8.70925 15.9678 8.70925 13.4228 10.279 11.8531Z" fill="white"/>
</svg>
