<svg width="34" height="33" viewBox="0 0 34 33" fill="none" xmlns="http://www.w3.org/2000/svg">
<rect width="34" height="33" rx="16.5" fill="white" fill-opacity="0.2"/>
<path d="M27.1127 25.2215L20.059 18.4687C21.2999 17.0396 21.9163 15.209 21.7803 13.3573C21.6443 11.5057 20.7662 9.77517 19.3285 8.52529C17.8908 7.27541 16.004 6.60221 14.0599 6.64552C12.1158 6.68884 10.2639 7.44533 8.88884 8.75788C7.51378 10.0704 6.72127 11.8381 6.67589 13.6939C6.63051 15.5496 7.33577 17.3507 8.64517 18.723C9.95457 20.0954 11.7675 20.9335 13.7073 21.0634C15.6472 21.1932 17.5649 20.6048 19.0621 19.4203L26.1365 26.1534C26.268 26.2609 26.4372 26.3171 26.6102 26.3107C26.7832 26.3043 26.9474 26.2359 27.0698 26.119C27.1922 26.0021 27.264 25.8455 27.2707 25.6803C27.2773 25.5151 27.2185 25.3536 27.1059 25.2281L27.1127 25.2215ZM8.06211 13.875C8.06211 12.7068 8.425 11.5649 9.10489 10.5936C9.78478 9.62237 10.7511 8.86535 11.8818 8.41832C13.0124 7.97129 14.2565 7.85432 15.4567 8.08222C16.657 8.31011 17.7595 8.87263 18.6248 9.69863C19.4902 10.5246 20.0795 11.577 20.3182 12.7227C20.557 13.8684 20.4344 15.056 19.9661 16.1352C19.4978 17.2144 18.7047 18.1369 17.6872 18.7858C16.6697 19.4348 15.4734 19.7812 14.2496 19.7812C12.6086 19.7812 11.0348 19.159 9.87438 18.0513C8.714 16.9437 8.06211 15.4414 8.06211 13.875Z" fill="white"/>
</svg>
